<svg width="316" height="315" viewBox="0 0 316 315" fill="none" xmlns="http://www.w3.org/2000/svg">
<path fill-rule="evenodd" clip-rule="evenodd" d="M177.882 315L137.549 315L29.3162 315C20.8574 315 14.0002 308.143 14.0002 299.684L14.0002 100.147L14 99.916L14.0002 99.6853L14.0002 99.6047L14.0004 99.6047C14.138 44.5658 50.7713 -3.21249e-05 95.9408 -3.40993e-05C120.588 -3.51767e-05 142.694 13.2694 157.715 34.2692C172.737 13.2694 194.843 -3.84225e-05 219.49 -3.94998e-05C264.66 -4.14743e-05 301.293 44.5658 301.431 99.6047L301.431 99.6047L301.431 299.684C301.431 308.143 294.574 315 286.115 315L177.882 315Z" fill="#F76902"/>
<path fill-rule="evenodd" clip-rule="evenodd" d="M177.882 315L137.549 315L29.3163 315C20.8574 315 14.0002 308.143 14.0002 299.684L14.0002 138.799L14 138.61L14.0002 138.421L14.0002 138.355L14.0004 138.355C14.1381 93.2176 50.7713 56.6693 95.9408 56.6693C120.588 56.6693 142.694 67.5516 157.715 84.7734C172.737 67.5516 194.843 56.6693 219.49 56.6693C264.66 56.6693 301.293 93.2176 301.431 138.355L301.431 138.355L301.431 299.684C301.431 308.143 294.574 315 286.115 315L177.882 315ZM175.52 233.207L301.431 233.207L301.431 247.207L158.481 247.207C155.643 247.207 153.085 245.492 152.007 242.867C150.928 240.241 151.542 237.224 153.56 235.228L220.185 169.369C222.935 166.652 227.367 166.677 230.084 169.427C232.802 172.176 232.777 176.608 230.027 179.326L175.52 233.207ZM14.0001 277.42L112.377 179.042C115.111 176.308 115.111 171.876 112.377 169.143C109.644 166.409 105.212 166.409 102.478 169.143L14.0001 257.621L14.0001 277.42Z" fill="#6C0164"/>
<path d="M60.522 163.591C60.522 147.175 74.0241 133.591 91.022 133.591C108.02 133.591 121.522 147.175 121.522 163.591C121.522 180.007 108.02 193.591 91.022 193.591C74.0241 193.591 60.522 180.007 60.522 163.591Z" fill="#6C0164" stroke="#F76902" stroke-width="29"/>
<path d="M192.022 163.591C192.022 146.746 205.677 133.091 222.522 133.091C239.367 133.091 253.022 146.746 253.022 163.591C253.022 180.436 239.367 194.091 222.522 194.091C205.677 194.091 192.022 180.436 192.022 163.591Z" fill="#6C0164" stroke="#F76902" stroke-width="29"/>
<path d="M258.429 226.047C235.878 259.216 197.847 281 154.73 281C111.594 281 73.5468 259.195 51 226" stroke="#F7B415" stroke-width="22"/>
<path d="M48 112.98C57.567 99.1098 73.7014 90 91.9932 90C110.294 90 126.435 99.1185 136 113" stroke="#F7B415" stroke-width="22"/>
<path d="M180 112.98C189.567 99.1098 205.701 90 223.993 90C242.294 90 258.435 99.1185 268 113" stroke="#F7B415" stroke-width="22"/>
</svg>
